<mxfile host="app.diagrams.net" modified="2021-04-12T12:34:12.849Z" agent="5.0 (Windows NT 10.0; Win64; x64) AppleWebKit/537.36 (KHTML, like Gecko) Chrome/89.0.4389.114 Safari/537.36" etag="SOYT8XX3XcT9EQrA-pB1" version="14.5.8" type="github">
  <diagram id="_5uIV33gVepCxSf8eShq" name="Page-1">
    <mxGraphModel dx="4031" dy="3089" grid="0" gridSize="10" guides="1" tooltips="1" connect="1" arrows="1" fold="1" page="0" pageScale="1" pageWidth="827" pageHeight="1169" background="none" math="0" shadow="0">
      <root>
        <mxCell id="0" />
        <mxCell id="1" parent="0" />
        <mxCell id="PWsGWJg2u_9087rnuV5E-2" value="" style="rounded=0;whiteSpace=wrap;html=1;strokeWidth=3;fontSize=22;" parent="1" vertex="1">
          <mxGeometry x="-1820" y="-1467" width="1440" height="350" as="geometry" />
        </mxCell>
        <mxCell id="PWsGWJg2u_9087rnuV5E-118" value="&lt;p style=&quot;font-size: 22px;&quot;&gt;&lt;br style=&quot;font-size: 22px;&quot;&gt;&lt;/p&gt;" style="rounded=0;whiteSpace=wrap;html=1;strokeWidth=3;dashed=1;gradientColor=#ffffff;fillColor=none;fontSize=22;" parent="1" vertex="1">
          <mxGeometry x="-1207" y="-1487" width="552" height="380" as="geometry" />
        </mxCell>
        <mxCell id="PWsGWJg2u_9087rnuV5E-90" value="&lt;p style=&quot;font-size: 22px;&quot;&gt;&lt;br style=&quot;font-size: 22px;&quot;&gt;&lt;/p&gt;" style="rounded=0;whiteSpace=wrap;html=1;strokeWidth=3;dashed=1;gradientColor=#ffffff;fillColor=none;fontSize=22;" parent="1" vertex="1">
          <mxGeometry x="-1706" y="-1487" width="488" height="380" as="geometry" />
        </mxCell>
        <mxCell id="PWsGWJg2u_9087rnuV5E-3" value="" style="rounded=0;whiteSpace=wrap;html=1;strokeWidth=3;fontSize=22;" parent="1" vertex="1">
          <mxGeometry x="-1820" y="-1462" width="34" height="60" as="geometry" />
        </mxCell>
        <mxCell id="PWsGWJg2u_9087rnuV5E-4" value="" style="rounded=0;whiteSpace=wrap;html=1;strokeWidth=3;fontSize=22;" parent="1" vertex="1">
          <mxGeometry x="-1820" y="-1372" width="34" height="60" as="geometry" />
        </mxCell>
        <mxCell id="PWsGWJg2u_9087rnuV5E-5" value="" style="rounded=0;whiteSpace=wrap;html=1;strokeWidth=3;fontSize=22;" parent="1" vertex="1">
          <mxGeometry x="-1820" y="-1282" width="34" height="60" as="geometry" />
        </mxCell>
        <mxCell id="PWsGWJg2u_9087rnuV5E-6" value="" style="rounded=0;whiteSpace=wrap;html=1;strokeWidth=3;fontSize=22;" parent="1" vertex="1">
          <mxGeometry x="-1820" y="-1192" width="34" height="60" as="geometry" />
        </mxCell>
        <mxCell id="PWsGWJg2u_9087rnuV5E-10" value="" style="rounded=0;whiteSpace=wrap;html=1;strokeWidth=3;fontSize=22;" parent="1" vertex="1">
          <mxGeometry x="-414" y="-1317" width="34" height="60" as="geometry" />
        </mxCell>
        <mxCell id="PWsGWJg2u_9087rnuV5E-11" value="&lt;blockquote style=&quot;font-size: 22px;&quot;&gt;&lt;font style=&quot;font-size: 22px;&quot;&gt;包解析&lt;/font&gt;&lt;/blockquote&gt;" style="rounded=0;whiteSpace=wrap;html=1;strokeWidth=3;fontSize=22;" parent="1" vertex="1">
          <mxGeometry x="-1773" y="-1462" width="60" height="330" as="geometry" />
        </mxCell>
        <mxCell id="PWsGWJg2u_9087rnuV5E-12" value="&lt;p style=&quot;font-size: 22px;&quot;&gt;&lt;font style=&quot;font-size: 22px;&quot;&gt;匹配映射&lt;/font&gt;&lt;/p&gt;" style="rounded=0;whiteSpace=wrap;html=1;strokeWidth=3;fontSize=22;" parent="1" vertex="1">
          <mxGeometry x="-1697" y="-1167" width="440" height="35" as="geometry" />
        </mxCell>
        <mxCell id="PWsGWJg2u_9087rnuV5E-13" value="&lt;blockquote style=&quot;font-size: 22px;&quot;&gt;&lt;br style=&quot;font-size: 22px;&quot;&gt;&lt;/blockquote&gt;" style="rounded=0;whiteSpace=wrap;html=1;strokeWidth=3;fontSize=22;" parent="1" vertex="1">
          <mxGeometry x="-1680" y="-1707" width="1230" height="100" as="geometry" />
        </mxCell>
        <mxCell id="PWsGWJg2u_9087rnuV5E-15" value="&lt;blockquote style=&quot;font-size: 22px;&quot;&gt;&lt;br style=&quot;font-size: 22px;&quot;&gt;&lt;/blockquote&gt;" style="rounded=0;whiteSpace=wrap;html=1;strokeWidth=3;fontSize=22;" parent="1" vertex="1">
          <mxGeometry x="-1607" y="-1417.5" width="115" height="230" as="geometry" />
        </mxCell>
        <mxCell id="PWsGWJg2u_9087rnuV5E-26" value="&lt;p style=&quot;font-size: 22px;&quot;&gt;&lt;font style=&quot;font-size: 22px;&quot;&gt;P4Runtime&lt;/font&gt;&lt;/p&gt;" style="rounded=0;whiteSpace=wrap;html=1;strokeWidth=3;fontSize=22;" parent="1" vertex="1">
          <mxGeometry x="-1680" y="-1467" width="1170" height="30" as="geometry" />
        </mxCell>
        <mxCell id="PWsGWJg2u_9087rnuV5E-27" value="&lt;span style=&quot;color: rgb(0, 0, 0); font-family: helvetica; font-size: 22px; font-style: normal; font-weight: 400; letter-spacing: normal; text-align: center; text-indent: 0px; text-transform: none; word-spacing: 0px; background-color: rgb(248, 249, 250); display: inline; float: none;&quot;&gt;Ingress流水线&lt;/span&gt;" style="text;whiteSpace=wrap;html=1;fontSize=22;" parent="1" vertex="1">
          <mxGeometry x="-1535" y="-1097" width="140" height="30" as="geometry" />
        </mxCell>
        <mxCell id="PWsGWJg2u_9087rnuV5E-30" value="&lt;span style=&quot;color: rgb(0, 0, 0); font-family: helvetica; font-size: 22px; font-style: normal; font-weight: 400; letter-spacing: normal; text-align: center; text-indent: 0px; text-transform: none; word-spacing: 0px; background-color: rgb(248, 249, 250); display: inline; float: none;&quot;&gt;交换机状态&lt;/span&gt;" style="text;whiteSpace=wrap;html=1;fillColor=#ffffff;fontSize=22;" parent="1" vertex="1">
          <mxGeometry x="-1126.87" y="-1587" width="140" height="30" as="geometry" />
        </mxCell>
        <mxCell id="PWsGWJg2u_9087rnuV5E-32" value="&lt;blockquote style=&quot;font-size: 22px;&quot;&gt;&lt;br style=&quot;font-size: 22px;&quot;&gt;&lt;/blockquote&gt;" style="rounded=0;whiteSpace=wrap;html=1;strokeWidth=2;fontSize=22;" parent="1" vertex="1">
          <mxGeometry x="-648" y="-1419.5" width="100" height="80" as="geometry" />
        </mxCell>
        <mxCell id="PWsGWJg2u_9087rnuV5E-33" value="&lt;blockquote style=&quot;font-size: 22px;&quot;&gt;&lt;br style=&quot;font-size: 22px;&quot;&gt;&lt;/blockquote&gt;" style="rounded=0;whiteSpace=wrap;html=1;strokeWidth=2;fontSize=22;" parent="1" vertex="1">
          <mxGeometry x="-638" y="-1409.5" width="100" height="80" as="geometry" />
        </mxCell>
        <mxCell id="PWsGWJg2u_9087rnuV5E-34" value="&lt;blockquote style=&quot;font-size: 22px;&quot;&gt;&lt;br style=&quot;font-size: 22px;&quot;&gt;&lt;/blockquote&gt;" style="rounded=0;whiteSpace=wrap;html=1;strokeWidth=2;fontSize=22;" parent="1" vertex="1">
          <mxGeometry x="-628" y="-1399.5" width="100" height="80" as="geometry" />
        </mxCell>
        <mxCell id="PWsGWJg2u_9087rnuV5E-35" value="&lt;blockquote style=&quot;font-size: 22px;&quot;&gt;&lt;br style=&quot;font-size: 22px;&quot;&gt;&lt;/blockquote&gt;" style="rounded=0;whiteSpace=wrap;html=1;strokeWidth=2;fontSize=22;" parent="1" vertex="1">
          <mxGeometry x="-618" y="-1389.5" width="100" height="80" as="geometry" />
        </mxCell>
        <mxCell id="PWsGWJg2u_9087rnuV5E-36" value="&lt;font style=&quot;font-size: 22px;&quot;&gt;表&lt;/font&gt;" style="text;html=1;strokeColor=none;fillColor=none;align=center;verticalAlign=middle;whiteSpace=wrap;rounded=0;fontSize=22;" parent="1" vertex="1">
          <mxGeometry x="-588" y="-1374.5" width="40" height="20" as="geometry" />
        </mxCell>
        <mxCell id="PWsGWJg2u_9087rnuV5E-37" value="&lt;span style=&quot;color: rgb(0, 0, 0); font-family: helvetica; font-size: 22px; font-style: normal; font-weight: 400; letter-spacing: normal; text-align: center; text-indent: 0px; text-transform: none; word-spacing: 0px; background-color: rgb(248, 249, 250); display: inline; float: none;&quot;&gt;Egress流水线&lt;/span&gt;" style="text;whiteSpace=wrap;html=1;fontSize=22;" parent="1" vertex="1">
          <mxGeometry x="-643" y="-1102.5" width="140" height="30" as="geometry" />
        </mxCell>
        <mxCell id="PWsGWJg2u_9087rnuV5E-38" value="&lt;blockquote style=&quot;font-size: 22px;&quot;&gt;&lt;span style=&quot;font-size: 22px;&quot;&gt;Sysrepo数据库&lt;/span&gt;&lt;/blockquote&gt;" style="rounded=0;whiteSpace=wrap;html=1;strokeWidth=3;fontSize=22;" parent="1" vertex="1">
          <mxGeometry x="-1115.75" y="-967" width="320" height="90" as="geometry" />
        </mxCell>
        <mxCell id="PWsGWJg2u_9087rnuV5E-40" value="&lt;p style=&quot;font-size: 22px;&quot;&gt;&lt;font style=&quot;font-size: 22px;&quot;&gt;订阅模块&lt;/font&gt;&lt;/p&gt;" style="rounded=0;whiteSpace=wrap;html=1;strokeWidth=3;fontSize=22;" parent="1" vertex="1">
          <mxGeometry x="-943" y="-1147" width="147.25" height="30" as="geometry" />
        </mxCell>
        <mxCell id="PWsGWJg2u_9087rnuV5E-41" value="&lt;p style=&quot;font-size: 22px;&quot;&gt;&lt;font style=&quot;font-size: 22px;&quot;&gt;通知模块&lt;/font&gt;&lt;/p&gt;" style="rounded=0;whiteSpace=wrap;html=1;strokeWidth=3;fontSize=22;" parent="1" vertex="1">
          <mxGeometry x="-915.75" y="-967" width="110" height="30" as="geometry" />
        </mxCell>
        <mxCell id="PWsGWJg2u_9087rnuV5E-42" value="" style="endArrow=classic;html=1;exitX=0.696;exitY=-0.01;exitDx=0;exitDy=0;exitPerimeter=0;entryX=0.713;entryY=1.038;entryDx=0;entryDy=0;strokeWidth=3;entryPerimeter=0;fontSize=22;" parent="1" source="PWsGWJg2u_9087rnuV5E-41" target="PWsGWJg2u_9087rnuV5E-40" edge="1">
          <mxGeometry width="50" height="50" relative="1" as="geometry">
            <mxPoint x="-1050" y="-923.01" as="sourcePoint" />
            <mxPoint x="-1049.96" y="-797" as="targetPoint" />
          </mxGeometry>
        </mxCell>
        <mxCell id="PWsGWJg2u_9087rnuV5E-43" value="" style="endArrow=classic;html=1;entryX=0.094;entryY=-0.067;entryDx=0;entryDy=0;entryPerimeter=0;strokeWidth=3;exitX=0.25;exitY=1;exitDx=0;exitDy=0;fontSize=22;" parent="1" source="PWsGWJg2u_9087rnuV5E-40" target="PWsGWJg2u_9087rnuV5E-41" edge="1">
          <mxGeometry width="50" height="50" relative="1" as="geometry">
            <mxPoint x="-915" y="-1047" as="sourcePoint" />
            <mxPoint x="-1107.92" y="-921.8399999999999" as="targetPoint" />
          </mxGeometry>
        </mxCell>
        <mxCell id="PWsGWJg2u_9087rnuV5E-44" value="" style="endArrow=classic;html=1;exitX=0.821;exitY=1.018;exitDx=0;exitDy=0;exitPerimeter=0;entryX=0.104;entryY=-0.133;entryDx=0;entryDy=0;entryPerimeter=0;fontSize=22;" parent="1" edge="1">
          <mxGeometry width="50" height="50" relative="1" as="geometry">
            <mxPoint x="-1515.4399999999996" y="-1556.46" as="sourcePoint" />
            <mxPoint x="-1515.71" y="-1467" as="targetPoint" />
          </mxGeometry>
        </mxCell>
        <mxCell id="PWsGWJg2u_9087rnuV5E-45" value="" style="endArrow=classic;html=1;exitX=0.308;exitY=-0.133;exitDx=0;exitDy=0;exitPerimeter=0;entryX=0.227;entryY=1;entryDx=0;entryDy=0;entryPerimeter=0;strokeWidth=3;fontSize=22;" parent="1" edge="1">
          <mxGeometry width="50" height="50" relative="1" as="geometry">
            <mxPoint x="-1070.8" y="-1467" as="sourcePoint" />
            <mxPoint x="-1070.1599999999999" y="-1605.65" as="targetPoint" />
          </mxGeometry>
        </mxCell>
        <mxCell id="PWsGWJg2u_9087rnuV5E-48" value="" style="endArrow=classic;html=1;entryX=0.104;entryY=-0.133;entryDx=0;entryDy=0;entryPerimeter=0;strokeWidth=3;fontSize=22;" parent="1" edge="1">
          <mxGeometry width="50" height="50" relative="1" as="geometry">
            <mxPoint x="-1516" y="-1607" as="sourcePoint" />
            <mxPoint x="-1515.5900000000001" y="-1467" as="targetPoint" />
          </mxGeometry>
        </mxCell>
        <mxCell id="PWsGWJg2u_9087rnuV5E-49" value="&lt;blockquote style=&quot;font-size: 22px;&quot;&gt;&lt;span style=&quot;color: rgb(0, 0, 0); font-family: helvetica; font-size: 22px; font-style: normal; font-weight: 400; letter-spacing: normal; text-align: center; text-indent: 0px; text-transform: none; word-spacing: 0px; background-color: rgb(248, 249, 250); display: inline; float: none;&quot;&gt;流过滤器&lt;/span&gt;&lt;/blockquote&gt;" style="text;whiteSpace=wrap;html=1;fontSize=22;" parent="1" vertex="1">
          <mxGeometry x="-1592" y="-1367.5" width="110" height="150" as="geometry" />
        </mxCell>
        <mxCell id="PWsGWJg2u_9087rnuV5E-50" value="&lt;blockquote style=&quot;font-size: 22px;&quot;&gt;&lt;font style=&quot;font-size: 22px;&quot;&gt;流识别&lt;/font&gt;&lt;/blockquote&gt;" style="rounded=0;whiteSpace=wrap;html=1;strokeWidth=3;rotation=0;fontSize=22;" parent="1" vertex="1">
          <mxGeometry x="-1607" y="-1347.5" width="35" height="100" as="geometry" />
        </mxCell>
        <mxCell id="PWsGWJg2u_9087rnuV5E-51" value="&lt;p style=&quot;font-size: 22px;&quot;&gt;整形队列&lt;/p&gt;" style="rounded=0;whiteSpace=wrap;html=1;strokeWidth=3;fontSize=22;" parent="1" vertex="1">
          <mxGeometry x="-1195" y="-1419" width="161.5" height="32" as="geometry" />
        </mxCell>
        <mxCell id="PWsGWJg2u_9087rnuV5E-52" value="&lt;p style=&quot;font-size: 22px;&quot;&gt;整形队列&lt;/p&gt;" style="rounded=0;whiteSpace=wrap;html=1;strokeWidth=3;fontSize=22;" parent="1" vertex="1">
          <mxGeometry x="-1195" y="-1377" width="161.5" height="30" as="geometry" />
        </mxCell>
        <mxCell id="PWsGWJg2u_9087rnuV5E-53" value="&lt;p style=&quot;font-size: 22px;&quot;&gt;整形队列&lt;/p&gt;" style="rounded=0;whiteSpace=wrap;html=1;strokeWidth=3;fontSize=22;" parent="1" vertex="1">
          <mxGeometry x="-1195" y="-1338" width="161.5" height="31" as="geometry" />
        </mxCell>
        <mxCell id="PWsGWJg2u_9087rnuV5E-55" value="&lt;p style=&quot;font-size: 22px;&quot;&gt;整形队列&lt;/p&gt;" style="rounded=0;whiteSpace=wrap;html=1;strokeWidth=3;fontSize=22;" parent="1" vertex="1">
          <mxGeometry x="-1195" y="-1299" width="161.5" height="32" as="geometry" />
        </mxCell>
        <mxCell id="PWsGWJg2u_9087rnuV5E-56" value="&lt;p style=&quot;font-size: 22px;&quot;&gt;整形队列&lt;/p&gt;" style="rounded=0;whiteSpace=wrap;html=1;strokeWidth=3;fontSize=22;" parent="1" vertex="1">
          <mxGeometry x="-1195" y="-1259" width="161.5" height="32" as="geometry" />
        </mxCell>
        <mxCell id="PWsGWJg2u_9087rnuV5E-57" value="&lt;p style=&quot;font-size: 22px;&quot;&gt;整形队列&lt;/p&gt;" style="rounded=0;whiteSpace=wrap;html=1;strokeWidth=3;fontSize=22;" parent="1" vertex="1">
          <mxGeometry x="-1195" y="-1218" width="161.5" height="31" as="geometry" />
        </mxCell>
        <mxCell id="PWsGWJg2u_9087rnuV5E-58" value="&lt;p style=&quot;font-size: 22px;&quot;&gt;整形队列&lt;/p&gt;" style="rounded=0;whiteSpace=wrap;html=1;strokeWidth=3;fontSize=22;" parent="1" vertex="1">
          <mxGeometry x="-1195" y="-1180" width="161.5" height="33" as="geometry" />
        </mxCell>
        <mxCell id="PWsGWJg2u_9087rnuV5E-62" value="&lt;p style=&quot;font-size: 22px;&quot;&gt;整形器&lt;/p&gt;" style="rounded=0;whiteSpace=wrap;html=1;strokeWidth=3;fontSize=22;" parent="1" vertex="1">
          <mxGeometry x="-1033.5" y="-1419" width="113.5" height="32" as="geometry" />
        </mxCell>
        <mxCell id="PWsGWJg2u_9087rnuV5E-63" value="&lt;p style=&quot;font-size: 22px;&quot;&gt;整形器&lt;br style=&quot;font-size: 22px;&quot;&gt;&lt;/p&gt;" style="rounded=0;whiteSpace=wrap;html=1;strokeWidth=3;fontSize=22;" parent="1" vertex="1">
          <mxGeometry x="-1033.5" y="-1377" width="114.5" height="30" as="geometry" />
        </mxCell>
        <mxCell id="PWsGWJg2u_9087rnuV5E-64" value="&lt;p style=&quot;font-size: 22px;&quot;&gt;整形器&lt;br style=&quot;font-size: 22px;&quot;&gt;&lt;/p&gt;" style="rounded=0;whiteSpace=wrap;html=1;strokeWidth=3;fontSize=22;" parent="1" vertex="1">
          <mxGeometry x="-1033.5" y="-1338" width="114.5" height="31" as="geometry" />
        </mxCell>
        <mxCell id="PWsGWJg2u_9087rnuV5E-65" value="&lt;p style=&quot;font-size: 22px;&quot;&gt;整形器&lt;br style=&quot;font-size: 22px;&quot;&gt;&lt;/p&gt;" style="rounded=0;whiteSpace=wrap;html=1;strokeWidth=3;fontSize=22;" parent="1" vertex="1">
          <mxGeometry x="-1033.5" y="-1299" width="114.5" height="32" as="geometry" />
        </mxCell>
        <mxCell id="PWsGWJg2u_9087rnuV5E-66" value="&lt;p style=&quot;font-size: 22px;&quot;&gt;整形器&lt;br style=&quot;font-size: 22px;&quot;&gt;&lt;/p&gt;" style="rounded=0;whiteSpace=wrap;html=1;strokeWidth=3;fontSize=22;" parent="1" vertex="1">
          <mxGeometry x="-1033.5" y="-1259" width="113.5" height="32" as="geometry" />
        </mxCell>
        <mxCell id="PWsGWJg2u_9087rnuV5E-67" value="&lt;p style=&quot;font-size: 22px;&quot;&gt;整形器&lt;br style=&quot;font-size: 22px;&quot;&gt;&lt;/p&gt;" style="rounded=0;whiteSpace=wrap;html=1;strokeWidth=3;fontSize=22;" parent="1" vertex="1">
          <mxGeometry x="-1033.5" y="-1218" width="113.5" height="31" as="geometry" />
        </mxCell>
        <mxCell id="PWsGWJg2u_9087rnuV5E-68" value="&lt;p style=&quot;font-size: 22px;&quot;&gt;整形器&lt;br style=&quot;font-size: 22px;&quot;&gt;&lt;/p&gt;" style="rounded=0;whiteSpace=wrap;html=1;strokeWidth=3;fontSize=22;" parent="1" vertex="1">
          <mxGeometry x="-1033.5" y="-1180" width="114.5" height="33" as="geometry" />
        </mxCell>
        <mxCell id="PWsGWJg2u_9087rnuV5E-70" value="&lt;div style=&quot;text-align: center; font-size: 22px;&quot;&gt;&lt;span style=&quot;font-size: 22px;&quot;&gt;&lt;font face=&quot;helvetica&quot; style=&quot;font-size: 22px;&quot;&gt;交织整形&lt;/font&gt;&lt;/span&gt;&lt;/div&gt;" style="text;whiteSpace=wrap;html=1;fontSize=22;" parent="1" vertex="1">
          <mxGeometry x="-1040" y="-1097" width="140" height="30" as="geometry" />
        </mxCell>
        <mxCell id="PWsGWJg2u_9087rnuV5E-71" value="&lt;div style=&quot;text-align: center; font-size: 22px;&quot;&gt;&lt;span style=&quot;font-size: 22px;&quot;&gt;&lt;font face=&quot;helvetica&quot; style=&quot;font-size: 22px;&quot;&gt;入队列&lt;/font&gt;&lt;/span&gt;&lt;/div&gt;" style="text;whiteSpace=wrap;html=1;fontSize=22;" parent="1" vertex="1">
          <mxGeometry x="-1170" y="-1097" width="140" height="30" as="geometry" />
        </mxCell>
        <mxCell id="PWsGWJg2u_9087rnuV5E-74" value="&#xa;&#xa;&lt;span style=&quot;color: rgb(0, 0, 0); font-family: helvetica; font-size: 22px; font-style: normal; font-weight: 400; letter-spacing: normal; text-align: center; text-indent: 0px; text-transform: none; word-spacing: 0px; background-color: rgb(248, 249, 250); display: inline; float: none;&quot;&gt;流门控&lt;/span&gt;&#xa;&#xa;" style="rounded=0;whiteSpace=wrap;html=1;strokeWidth=3;fontStyle=1;fontSize=22;" parent="1" vertex="1">
          <mxGeometry x="-1468.75" y="-1427.5" width="115" height="55" as="geometry" />
        </mxCell>
        <mxCell id="PWsGWJg2u_9087rnuV5E-76" value="&#xa;&#xa;&lt;span style=&quot;color: rgb(0, 0, 0); font-family: helvetica; font-size: 22px; font-style: normal; font-weight: 400; letter-spacing: normal; text-align: center; text-indent: 0px; text-transform: none; word-spacing: 0px; background-color: rgb(248, 249, 250); display: inline; float: none;&quot;&gt;流门控&lt;/span&gt;&#xa;&#xa;" style="rounded=0;whiteSpace=wrap;html=1;strokeWidth=3;fontStyle=1;fontSize=22;" parent="1" vertex="1">
          <mxGeometry x="-1470" y="-1360.5" width="115" height="53" as="geometry" />
        </mxCell>
        <mxCell id="PWsGWJg2u_9087rnuV5E-77" value="&#xa;&#xa;&lt;span style=&quot;color: rgb(0, 0, 0); font-family: helvetica; font-size: 22px; font-style: normal; font-weight: 400; letter-spacing: normal; text-align: center; text-indent: 0px; text-transform: none; word-spacing: 0px; background-color: rgb(248, 249, 250); display: inline; float: none;&quot;&gt;流门控&lt;/span&gt;&#xa;&#xa;" style="rounded=0;whiteSpace=wrap;html=1;strokeWidth=3;fontStyle=1;fontSize=22;" parent="1" vertex="1">
          <mxGeometry x="-1468.75" y="-1295.5" width="115" height="51" as="geometry" />
        </mxCell>
        <mxCell id="PWsGWJg2u_9087rnuV5E-78" value="&#xa;&#xa;&lt;span style=&quot;color: rgb(0, 0, 0); font-family: helvetica; font-size: 22px; font-style: normal; font-weight: 400; letter-spacing: normal; text-align: center; text-indent: 0px; text-transform: none; word-spacing: 0px; background-color: rgb(248, 249, 250); display: inline; float: none;&quot;&gt;流门控&lt;/span&gt;&#xa;&#xa;" style="rounded=0;whiteSpace=wrap;html=1;strokeWidth=3;fontStyle=1;fontSize=22;" parent="1" vertex="1">
          <mxGeometry x="-1470" y="-1232.5" width="115" height="52.5" as="geometry" />
        </mxCell>
        <mxCell id="PWsGWJg2u_9087rnuV5E-79" value="&lt;p style=&quot;font-size: 22px&quot;&gt;&lt;font style=&quot;font-size: 22px ; font-weight: normal&quot;&gt;内部优先级&lt;/font&gt;&lt;/p&gt;" style="rounded=0;whiteSpace=wrap;html=1;strokeWidth=3;fontStyle=1;fontSize=22;" parent="1" vertex="1">
          <mxGeometry x="-1353.75" y="-1427.5" width="118.5" height="55" as="geometry" />
        </mxCell>
        <mxCell id="PWsGWJg2u_9087rnuV5E-80" value="&lt;p style=&quot;font-size: 22px&quot;&gt;&lt;font style=&quot;font-size: 22px ; font-weight: normal&quot;&gt;内部优先级&lt;/font&gt;&lt;/p&gt;" style="rounded=0;whiteSpace=wrap;html=1;strokeWidth=3;fontStyle=1;fontSize=22;" parent="1" vertex="1">
          <mxGeometry x="-1353.75" y="-1360.5" width="119.5" height="53" as="geometry" />
        </mxCell>
        <mxCell id="PWsGWJg2u_9087rnuV5E-81" value="&lt;p style=&quot;font-size: 22px&quot;&gt;&lt;font style=&quot;font-size: 22px ; font-weight: normal&quot;&gt;内部优先级&lt;/font&gt;&lt;/p&gt;" style="rounded=0;whiteSpace=wrap;html=1;strokeWidth=3;fontStyle=1;fontSize=22;" parent="1" vertex="1">
          <mxGeometry x="-1353.75" y="-1295.5" width="118.5" height="51" as="geometry" />
        </mxCell>
        <mxCell id="PWsGWJg2u_9087rnuV5E-82" value="&lt;p style=&quot;font-size: 22px&quot;&gt;&lt;font style=&quot;font-size: 22px ; font-weight: normal&quot;&gt;内部优先级&lt;/font&gt;&lt;/p&gt;" style="rounded=0;whiteSpace=wrap;html=1;strokeWidth=3;fontStyle=1;fontSize=22;" parent="1" vertex="1">
          <mxGeometry x="-1353.75" y="-1232.5" width="117.5" height="52" as="geometry" />
        </mxCell>
        <mxCell id="PWsGWJg2u_9087rnuV5E-83" value="&lt;span style=&quot;color: rgb(0, 0, 0); font-family: helvetica; font-size: 22px; font-style: normal; font-weight: 400; letter-spacing: normal; text-align: center; text-indent: 0px; text-transform: none; word-spacing: 0px; background-color: rgb(248, 249, 250); display: inline; float: none;&quot;&gt;入端口&lt;/span&gt;" style="text;whiteSpace=wrap;html=1;fontSize=22;" parent="1" vertex="1">
          <mxGeometry x="-1830" y="-1097" width="140" height="30" as="geometry" />
        </mxCell>
        <mxCell id="PWsGWJg2u_9087rnuV5E-87" value="&lt;p style=&quot;font-size: 22px;&quot;&gt;&lt;font style=&quot;font-size: 22px;&quot;&gt;交换&lt;/font&gt;&lt;/p&gt;&lt;p style=&quot;font-size: 22px;&quot;&gt;&lt;font style=&quot;font-size: 22px;&quot;&gt;结构&lt;/font&gt;&lt;/p&gt;" style="rounded=0;whiteSpace=wrap;html=1;strokeWidth=3;fontSize=22;" parent="1" vertex="1">
          <mxGeometry x="-1695" y="-1417" width="80" height="230" as="geometry" />
        </mxCell>
        <mxCell id="PWsGWJg2u_9087rnuV5E-91" value="" style="endArrow=none;html=1;strokeWidth=3;fontSize=22;" parent="1" edge="1">
          <mxGeometry width="50" height="50" relative="1" as="geometry">
            <mxPoint x="-1683" y="-1252.6" as="sourcePoint" />
            <mxPoint x="-1663" y="-1252.6" as="targetPoint" />
          </mxGeometry>
        </mxCell>
        <mxCell id="PWsGWJg2u_9087rnuV5E-92" value="" style="endArrow=none;html=1;strokeWidth=3;fontSize=22;" parent="1" edge="1">
          <mxGeometry width="50" height="50" relative="1" as="geometry">
            <mxPoint x="-1643" y="-1202.4099999999999" as="sourcePoint" />
            <mxPoint x="-1623" y="-1202.4099999999999" as="targetPoint" />
          </mxGeometry>
        </mxCell>
        <mxCell id="PWsGWJg2u_9087rnuV5E-93" value="" style="endArrow=none;html=1;strokeWidth=3;fontSize=22;" parent="1" edge="1">
          <mxGeometry width="50" height="50" relative="1" as="geometry">
            <mxPoint x="-1683" y="-1202.4099999999999" as="sourcePoint" />
            <mxPoint x="-1663" y="-1202.7399999999998" as="targetPoint" />
          </mxGeometry>
        </mxCell>
        <mxCell id="PWsGWJg2u_9087rnuV5E-94" value="" style="endArrow=none;html=1;strokeWidth=3;fontSize=22;" parent="1" edge="1">
          <mxGeometry width="50" height="50" relative="1" as="geometry">
            <mxPoint x="-1643" y="-1252.6" as="sourcePoint" />
            <mxPoint x="-1623" y="-1252.6" as="targetPoint" />
          </mxGeometry>
        </mxCell>
        <mxCell id="PWsGWJg2u_9087rnuV5E-95" value="" style="endArrow=none;html=1;strokeWidth=3;fontSize=22;" parent="1" edge="1">
          <mxGeometry width="50" height="50" relative="1" as="geometry">
            <mxPoint x="-1663" y="-1252.4099999999999" as="sourcePoint" />
            <mxPoint x="-1643" y="-1202.4099999999999" as="targetPoint" />
          </mxGeometry>
        </mxCell>
        <mxCell id="PWsGWJg2u_9087rnuV5E-96" value="" style="endArrow=none;html=1;strokeWidth=3;fontSize=22;" parent="1" edge="1">
          <mxGeometry width="50" height="50" relative="1" as="geometry">
            <mxPoint x="-1663" y="-1202.4099999999999" as="sourcePoint" />
            <mxPoint x="-1643" y="-1252.4099999999999" as="targetPoint" />
          </mxGeometry>
        </mxCell>
        <mxCell id="PWsGWJg2u_9087rnuV5E-104" value="&lt;blockquote style=&quot;font-size: 22px;&quot;&gt;&lt;font style=&quot;font-size: 22px;&quot;&gt;传输选择算法&lt;/font&gt;&lt;/blockquote&gt;" style="rounded=0;whiteSpace=wrap;html=1;strokeWidth=3;fontSize=22;" parent="1" vertex="1">
          <mxGeometry x="-731" y="-1417" width="70" height="280" as="geometry" />
        </mxCell>
        <mxCell id="PWsGWJg2u_9087rnuV5E-105" value="&lt;p style=&quot;font-size: 22px;&quot;&gt;共享队列&lt;/p&gt;" style="rounded=0;whiteSpace=wrap;html=1;strokeWidth=3;fontSize=22;" parent="1" vertex="1">
          <mxGeometry x="-902" y="-1377.5" width="161.5" height="35.5" as="geometry" />
        </mxCell>
        <mxCell id="PWsGWJg2u_9087rnuV5E-106" value="&lt;p style=&quot;font-size: 22px;&quot;&gt;共享队列&lt;/p&gt;" style="rounded=0;whiteSpace=wrap;html=1;strokeWidth=3;fontSize=22;" parent="1" vertex="1">
          <mxGeometry x="-902" y="-1325.5" width="161.5" height="33.5" as="geometry" />
        </mxCell>
        <mxCell id="PWsGWJg2u_9087rnuV5E-107" value="&lt;p style=&quot;font-size: 22px;&quot;&gt;共享队列&lt;/p&gt;" style="rounded=0;whiteSpace=wrap;html=1;strokeWidth=3;fontSize=22;" parent="1" vertex="1">
          <mxGeometry x="-902" y="-1276.5" width="161.5" height="34.5" as="geometry" />
        </mxCell>
        <mxCell id="PWsGWJg2u_9087rnuV5E-108" value="&lt;p style=&quot;font-size: 22px;&quot;&gt;共享队列&lt;/p&gt;" style="rounded=0;whiteSpace=wrap;html=1;strokeWidth=3;fontSize=22;" parent="1" vertex="1">
          <mxGeometry x="-902" y="-1229.5" width="161.5" height="37.5" as="geometry" />
        </mxCell>
        <mxCell id="PWsGWJg2u_9087rnuV5E-109" value="&lt;blockquote style=&quot;font-size: 22px;&quot;&gt;&lt;font style=&quot;font-size: 22px;&quot;&gt;libpacp&lt;/font&gt;&lt;/blockquote&gt;&lt;blockquote style=&quot;font-size: 22px;&quot;&gt;&lt;font style=&quot;font-size: 22px;&quot;&gt;传输模块&lt;/font&gt;&lt;/blockquote&gt;" style="rounded=0;whiteSpace=wrap;html=1;strokeWidth=3;fontSize=22;" parent="1" vertex="1">
          <mxGeometry x="-506" y="-1419.5" width="80" height="285" as="geometry" />
        </mxCell>
        <mxCell id="PWsGWJg2u_9087rnuV5E-111" value="&lt;div style=&quot;text-align: center; font-size: 22px;&quot;&gt;&lt;span style=&quot;font-size: 22px;&quot;&gt;&lt;font face=&quot;helvetica&quot; style=&quot;font-size: 22px;&quot;&gt;入队列&lt;/font&gt;&lt;/span&gt;&lt;/div&gt;" style="text;whiteSpace=wrap;html=1;fontSize=22;" parent="1" vertex="1">
          <mxGeometry x="-905" y="-1097" width="140" height="30" as="geometry" />
        </mxCell>
        <mxCell id="PWsGWJg2u_9087rnuV5E-112" value="&lt;div style=&quot;text-align: center; font-size: 22px;&quot;&gt;&lt;span style=&quot;font-size: 22px;&quot;&gt;&lt;font face=&quot;helvetica&quot; style=&quot;font-size: 22px;&quot;&gt;传输选择&lt;/font&gt;&lt;/span&gt;&lt;/div&gt;" style="text;whiteSpace=wrap;html=1;fontSize=22;" parent="1" vertex="1">
          <mxGeometry x="-781.5" y="-1097" width="140" height="30" as="geometry" />
        </mxCell>
        <mxCell id="PWsGWJg2u_9087rnuV5E-113" value="&lt;p style=&quot;font-size: 22px;&quot;&gt;&lt;font style=&quot;font-size: 22px;&quot;&gt;匹配映射&lt;/font&gt;&lt;/p&gt;" style="rounded=0;whiteSpace=wrap;html=1;strokeWidth=3;fontSize=22;" parent="1" vertex="1">
          <mxGeometry x="-648" y="-1172" width="130" height="35" as="geometry" />
        </mxCell>
        <mxCell id="PWsGWJg2u_9087rnuV5E-114" value="&lt;h1 style=&quot;font-size: 22px;&quot;&gt;action&lt;/h1&gt;" style="text;html=1;strokeColor=none;fillColor=none;spacing=5;spacingTop=-20;whiteSpace=wrap;overflow=hidden;rounded=0;dashed=1;fontSize=22;" parent="1" vertex="1">
          <mxGeometry x="-628" y="-1269.5" width="90" height="40" as="geometry" />
        </mxCell>
        <mxCell id="PWsGWJg2u_9087rnuV5E-115" value="&lt;h1 style=&quot;font-size: 22px;&quot;&gt;action&lt;/h1&gt;" style="text;html=1;strokeColor=none;fillColor=none;spacing=5;spacingTop=-20;whiteSpace=wrap;overflow=hidden;rounded=0;dashed=1;fontSize=22;" parent="1" vertex="1">
          <mxGeometry x="-628" y="-1239.5" width="90" height="40" as="geometry" />
        </mxCell>
        <mxCell id="PWsGWJg2u_9087rnuV5E-116" value="&lt;h1 style=&quot;font-size: 22px;&quot;&gt;action&lt;/h1&gt;" style="text;html=1;strokeColor=none;fillColor=none;spacing=5;spacingTop=-20;whiteSpace=wrap;overflow=hidden;rounded=0;dashed=1;fontSize=22;" parent="1" vertex="1">
          <mxGeometry x="-628" y="-1212" width="90" height="40" as="geometry" />
        </mxCell>
        <mxCell id="PWsGWJg2u_9087rnuV5E-117" value="&lt;h1 style=&quot;color: rgb(0, 0, 0); font-family: helvetica; font-style: normal; letter-spacing: normal; text-align: left; text-indent: 0px; text-transform: none; word-spacing: 0px; background-color: rgb(248, 249, 250); font-size: 22px;&quot;&gt;+&lt;/h1&gt;" style="text;whiteSpace=wrap;html=1;fontSize=22;" parent="1" vertex="1">
          <mxGeometry x="-598" y="-1317" width="30" height="55" as="geometry" />
        </mxCell>
        <mxCell id="PWsGWJg2u_9087rnuV5E-119" value="&lt;span style=&quot;font-family: helvetica; font-size: 22px; font-style: normal; font-weight: 400; letter-spacing: normal; text-align: center; text-indent: 0px; text-transform: none; word-spacing: 0px; background-color: rgb(248, 249, 250); display: inline; float: none;&quot;&gt;&lt;font color=&quot;#ff3333&quot; style=&quot;font-size: 22px;&quot;&gt;Ingress模块&lt;/font&gt;&lt;/span&gt;" style="text;whiteSpace=wrap;html=1;fontSize=22;" parent="1" vertex="1">
          <mxGeometry x="-1360" y="-1497" width="140" height="30" as="geometry" />
        </mxCell>
        <mxCell id="PWsGWJg2u_9087rnuV5E-120" value="&lt;span style=&quot;font-family: helvetica; font-size: 22px; font-style: normal; font-weight: 400; letter-spacing: normal; text-align: center; text-indent: 0px; text-transform: none; word-spacing: 0px; background-color: rgb(248, 249, 250); display: inline; float: none;&quot;&gt;&lt;font color=&quot;#ff3333&quot; style=&quot;font-size: 22px;&quot;&gt;调度模块&lt;/font&gt;&lt;/span&gt;" style="text;whiteSpace=wrap;html=1;fontSize=22;" parent="1" vertex="1">
          <mxGeometry x="-810" y="-1487" width="140" height="30" as="geometry" />
        </mxCell>
        <mxCell id="PWsGWJg2u_9087rnuV5E-121" value="&lt;span style=&quot;color: rgb(0, 0, 0); font-family: helvetica; font-size: 22px; font-style: normal; font-weight: 400; letter-spacing: normal; text-align: center; text-indent: 0px; text-transform: none; word-spacing: 0px; background-color: rgb(248, 249, 250); display: inline; float: none;&quot;&gt;订阅YANG模型&lt;/span&gt;" style="text;whiteSpace=wrap;html=1;fontSize=22;" parent="1" vertex="1">
          <mxGeometry x="-1032.5" y="-1037" width="180" height="30" as="geometry" />
        </mxCell>
        <mxCell id="PWsGWJg2u_9087rnuV5E-122" value="&lt;span style=&quot;color: rgb(0, 0, 0); font-family: helvetica; font-size: 22px; font-style: normal; font-weight: 400; letter-spacing: normal; text-align: center; text-indent: 0px; text-transform: none; word-spacing: 0px; background-color: rgb(248, 249, 250); display: inline; float: none;&quot;&gt;通知变更&lt;/span&gt;" style="text;whiteSpace=wrap;html=1;fontSize=22;" parent="1" vertex="1">
          <mxGeometry x="-863" y="-1037" width="180" height="30" as="geometry" />
        </mxCell>
        <mxCell id="PWsGWJg2u_9087rnuV5E-123" value="&lt;span style=&quot;font-family: helvetica; font-size: 22px; text-align: center;&quot;&gt;流表下发&lt;/span&gt;" style="text;whiteSpace=wrap;html=1;fillColor=#ffffff;fontSize=22;" parent="1" vertex="1">
          <mxGeometry x="-1560" y="-1587" width="90" height="30" as="geometry" />
        </mxCell>
        <mxCell id="PWsGWJg2u_9087rnuV5E-128" value="&lt;p style=&quot;font-size: 22px;&quot;&gt;&lt;br style=&quot;font-size: 22px;&quot;&gt;&lt;/p&gt;" style="rounded=0;whiteSpace=wrap;html=1;strokeWidth=3;dashed=1;gradientColor=#ffffff;fillColor=none;fontSize=22;" parent="1" vertex="1">
          <mxGeometry x="-1126.87" y="-1154" width="378.87" height="327" as="geometry" />
        </mxCell>
        <mxCell id="PWsGWJg2u_9087rnuV5E-129" value="&lt;span style=&quot;font-family: helvetica; font-size: 22px; font-style: normal; font-weight: 400; letter-spacing: normal; text-align: center; text-indent: 0px; text-transform: none; word-spacing: 0px; background-color: rgb(248, 249, 250); display: inline; float: none;&quot;&gt;&lt;font color=&quot;#ff3333&quot; style=&quot;font-size: 22px;&quot;&gt;YANG模型模块&lt;/font&gt;&lt;/span&gt;" style="text;whiteSpace=wrap;html=1;fontSize=22;" parent="1" vertex="1">
          <mxGeometry x="-902" y="-867" width="173" height="30" as="geometry" />
        </mxCell>
        <mxCell id="PWsGWJg2u_9087rnuV5E-130" value="" style="endArrow=classic;html=1;entryX=0.104;entryY=-0.133;entryDx=0;entryDy=0;entryPerimeter=0;strokeWidth=3;fontSize=22;" parent="1" edge="1">
          <mxGeometry width="50" height="50" relative="1" as="geometry">
            <mxPoint x="-592" y="-1607" as="sourcePoint" />
            <mxPoint x="-591.6400000000001" y="-1467" as="targetPoint" />
          </mxGeometry>
        </mxCell>
        <mxCell id="PWsGWJg2u_9087rnuV5E-132" value="&lt;p style=&quot;font-size: 22px;&quot;&gt;&lt;font style=&quot;font-size: 22px;&quot;&gt;状态感知模块&lt;/font&gt;&lt;/p&gt;" style="rounded=0;whiteSpace=wrap;html=1;strokeWidth=3;fontSize=22;" parent="1" vertex="1">
          <mxGeometry x="-1164.74" y="-1642" width="177.87" height="35" as="geometry" />
        </mxCell>
        <mxCell id="PWsGWJg2u_9087rnuV5E-133" value="&lt;p style=&quot;font-size: 22px;&quot;&gt;&lt;font style=&quot;font-size: 22px;&quot;&gt;流表下发模块&lt;/font&gt;&lt;/p&gt;" style="rounded=0;whiteSpace=wrap;html=1;strokeWidth=3;fontSize=22;" parent="1" vertex="1">
          <mxGeometry x="-1596.25" y="-1642" width="162.5" height="35" as="geometry" />
        </mxCell>
        <mxCell id="PWsGWJg2u_9087rnuV5E-138" value="&lt;p style=&quot;font-size: 22px;&quot;&gt;&lt;font style=&quot;font-size: 22px;&quot;&gt;流表下发模块&lt;/font&gt;&lt;/p&gt;" style="rounded=0;whiteSpace=wrap;html=1;strokeWidth=3;fontSize=22;" parent="1" vertex="1">
          <mxGeometry x="-680" y="-1642" width="170" height="35" as="geometry" />
        </mxCell>
        <mxCell id="PWsGWJg2u_9087rnuV5E-139" value="&lt;p style=&quot;font-size: 22px;&quot;&gt;&lt;font style=&quot;font-size: 22px;&quot;&gt;决策模块&lt;/font&gt;&lt;/p&gt;" style="rounded=0;whiteSpace=wrap;html=1;strokeWidth=3;fontSize=22;" parent="1" vertex="1">
          <mxGeometry x="-1500" y="-1707" width="900" height="35" as="geometry" />
        </mxCell>
        <mxCell id="PWsGWJg2u_9087rnuV5E-140" value="&lt;span style=&quot;color: rgb(0, 0, 0); font-family: helvetica; font-size: 22px; font-style: normal; letter-spacing: normal; text-align: center; text-indent: 0px; text-transform: none; word-spacing: 0px; background-color: rgb(248, 249, 250); display: inline; float: none;&quot;&gt;&lt;b style=&quot;font-size: 22px;&quot;&gt;控制器&lt;/b&gt;&lt;/span&gt;" style="text;whiteSpace=wrap;html=1;fontSize=22;" parent="1" vertex="1">
          <mxGeometry x="-1677.5" y="-1702" width="140" height="30" as="geometry" />
        </mxCell>
        <mxCell id="PWsGWJg2u_9087rnuV5E-141" value="&lt;span style=&quot;color: rgb(0, 0, 0); font-family: helvetica; font-size: 22px; font-style: normal; letter-spacing: normal; text-align: center; text-indent: 0px; text-transform: none; word-spacing: 0px; background-color: rgb(248, 249, 250); display: inline; float: none;&quot;&gt;&lt;b style=&quot;font-size: 22px;&quot;&gt;P4可编程交换机&lt;/b&gt;&lt;/span&gt;" style="text;whiteSpace=wrap;html=1;fontSize=22;" parent="1" vertex="1">
          <mxGeometry x="-1820" y="-1537" width="170" height="30" as="geometry" />
        </mxCell>
        <mxCell id="DJN4N4Qe_Qu-7xYy4Ldf-1" value="&lt;span style=&quot;color: rgb(0 , 0 , 0) ; font-family: &amp;#34;helvetica&amp;#34; ; font-size: 22px ; font-style: normal ; font-weight: 400 ; letter-spacing: normal ; text-align: center ; text-indent: 0px ; text-transform: none ; word-spacing: 0px ; background-color: rgb(248 , 249 , 250) ; display: inline ; float: none&quot;&gt;出端口&lt;/span&gt;" style="text;whiteSpace=wrap;html=1;fontSize=22;" vertex="1" parent="1">
          <mxGeometry x="-448" y="-1107" width="140" height="30" as="geometry" />
        </mxCell>
      </root>
    </mxGraphModel>
  </diagram>
</mxfile>
